w1000b400r50.ufo
<glyph name="_2" format="2">
  <advance width="1000"/>
  <unicode hex="0102"/>
  <unicode hex="0062"/>
  <outline>
    <component base="cap" xOffset="0" yOffset="0.000" />
    <component base="cap" xOffset="0" yOffset="-380.000" />
    <contour>
      <point x="0.000" y="200.000" type="line"/>
      <point x="0.000" y="-180.000" type="line"/>
      <point x="400.000" y="-180.000" type="line"/>
      <point x="400.000" y="200.000" type="line"/>
    </contour>
  </outline>
</glyph>
<glyph name="_6" format="2">
  <advance width="1000"/>
  <unicode hex="0106"/>
  <unicode hex="0064"/>
  <outline>
    <component base="cap" xOffset="0" yOffset="0.000" />
    <component base="cap" xOffset="0" yOffset="-340.000" />
    <contour>
      <point x="0.000" y="200.000" type="line"/>
      <point x="0.000" y="-140.000" type="line"/>
      <point x="400.000" y="-140.000" type="line"/>
      <point x="400.000" y="200.000" type="line"/>
    </contour>
  </outline>
</glyph>
<glyph name="_28" format="2">
  <advance width="1000"/>
  <unicode hex="011C"/>
  <unicode hex="2583"/><unicode hex="006F"/>
  <outline>
    <component base="cap" xOffset="0" yOffset="0.000" />
    <component base="cap" xOffset="0" yOffset="-120.000" />
    <contour>
      <point x="0.000" y="200.000" type="line"/>
      <point x="0.000" y="80.000" type="line"/>
      <point x="400.000" y="80.000" type="line"/>
      <point x="400.000" y="200.000" type="line"/>
    </contour>
  </outline>
</glyph>
<glyph name="_41" format="2">
  <advance width="1000"/>
  <unicode hex="0129"/>
  
  <outline>
    <component base="cap" xOffset="0" yOffset="0" />
    <component base="cap" xOffset="0" yOffset="10" />
    <contour>
      <point x="0" y="200" type="line"/>
      <point x="0" y="210" type="line"/>
      <point x="400" y="210" type="line"/>
      <point x="400" y="200" type="line"/>
    </contour>
  </outline>
</glyph>
<glyph name="_47" format="2">
  <advance width="1000"/>
  <unicode hex="012F"/>
  
  <outline>
    <component base="cap" xOffset="0" yOffset="0.000" />
    <component base="cap" xOffset="0" yOffset="70.000" />
    <contour>
      <point x="0.000" y="200.000" type="line"/>
      <point x="0.000" y="270.000" type="line"/>
      <point x="400.000" y="270.000" type="line"/>
      <point x="400.000" y="200.000" type="line"/>
    </contour>
  </outline>
</glyph>
<glyph name="_50" format="2">
  <advance width="1000"/>
  <unicode hex="0132"/>
  <unicode hex="0035"/><unicode hex="007A"/>
  <outline>
    <component base="cap" xOffset="0" yOffset="0.000" />
    <component base="cap" xOffset="0" yOffset="100.000" />
    <contour>
      <point x="0.000" y="200.000" type="line"/>
      <point x="0.000" y="300.000" type="line"/>
      <point x="400.000" y="300.000" type="line"/>
      <point x="400.000" y="200.000" type="line"/>
    </contour>
  </outline>
</glyph>
<glyph name="_55" format="2">
  <advance width="1000"/>
  <unicode hex="0137"/>
  
  <outline>
    <component base="cap" xOffset="0" yOffset="0" />
    <component base="cap" xOffset="0" yOffset="150" />
    <contour>
      <point x="0" y="200" type="line"/>
      <point x="0" y="350" type="line"/>
      <point x="400" y="350" type="line"/>
      <point x="400" y="200" type="line"/>
    </contour>
  </outline>
</glyph>
<glyph name="_56" format="2">
  <advance width="1000"/>
  <unicode hex="0138"/>
  <unicode hex="2585"/><unicode hex="0043"/>
  <outline>
    <component base="cap" xOffset="0" yOffset="0" />
    <component base="cap" xOffset="0" yOffset="160" />
    <contour>
      <point x="0" y="200" type="line"/>
      <point x="0" y="360" type="line"/>
      <point x="400" y="360" type="line"/>
      <point x="400" y="200" type="line"/>
    </contour>
  </outline>
</glyph>
<glyph name="_65" format="2">
  <advance width="1000"/>
  <unicode hex="0141"/>
  
  <outline>
    <component base="cap" xOffset="0" yOffset="0.000" />
    <component base="cap" xOffset="0" yOffset="250.000" />
    <contour>
      <point x="0.000" y="200.000" type="line"/>
      <point x="0.000" y="450.000" type="line"/>
      <point x="400.000" y="450.000" type="line"/>
      <point x="400.000" y="200.000" type="line"/>
    </contour>
  </outline>
</glyph>
<glyph name="_78" format="2">
  <advance width="1000"/>
  <unicode hex="014E"/>
  <unicode hex="004E"/>
  <outline>
    <component base="cap" xOffset="0" yOffset="0.000" />
    <component base="cap" xOffset="0" yOffset="380.000" />
    <contour>
      <point x="0.000" y="200.000" type="line"/>
      <point x="0.000" y="580.000" type="line"/>
      <point x="400.000" y="580.000" type="line"/>
      <point x="400.000" y="200.000" type="line"/>
    </contour>
  </outline>
</glyph>
<glyph name="_80" format="2">
  <advance width="1000"/>
  <unicode hex="0150"/>
  <unicode hex="0038"/><unicode hex="004F"/>
  <outline>
    <component base="cap" xOffset="0" yOffset="0.000" />
    <component base="cap" xOffset="0" yOffset="400.000" />
    <contour>
      <point x="0.000" y="200.000" type="line"/>
      <point x="0.000" y="600.000" type="line"/>
      <point x="400.000" y="600.000" type="line"/>
      <point x="400.000" y="200.000" type="line"/>
    </contour>
  </outline>
</glyph>
<glyph name="_87" format="2">
  <advance width="1000"/>
  <unicode hex="0157"/>
  
  <outline>
    <component base="cap" xOffset="0" yOffset="0.000" />
    <component base="cap" xOffset="0" yOffset="470.000" />
    <contour>
      <point x="0.000" y="200.000" type="line"/>
      <point x="0.000" y="670.000" type="line"/>
      <point x="400.000" y="670.000" type="line"/>
      <point x="400.000" y="200.000" type="line"/>
    </contour>
  </outline>
</glyph>
<glyph name="_93" format="2">
  <advance width="1000"/>
  <unicode hex="015D"/>
  
  <outline>
    <component base="cap" xOffset="0" yOffset="0.000" />
    <component base="cap" xOffset="0" yOffset="530.000" />
    <contour>
      <point x="0.000" y="200.000" type="line"/>
      <point x="0.000" y="730.000" type="line"/>
      <point x="400.000" y="730.000" type="line"/>
      <point x="400.000" y="200.000" type="line"/>
    </contour>
  </outline>
</glyph>
<glyph name="_95" format="2">
  <advance width="1000"/>
  <unicode hex="015F"/>
  
  <outline>
    <component base="cap" xOffset="0" yOffset="0.000" />
    <component base="cap" xOffset="0" yOffset="550.000" />
    <contour>
      <point x="0.000" y="200.000" type="line"/>
      <point x="0.000" y="750.000" type="line"/>
      <point x="400.000" y="750.000" type="line"/>
      <point x="400.000" y="200.000" type="line"/>
    </contour>
  </outline>
</glyph>
<glyph name="_100" format="2">
  <advance width="1000"/>
  <unicode hex="0164"/>
  <unicode hex="007C"/><unicode hex="2588"/><unicode hex="005A"/>
  <outline>
    <component base="cap" xOffset="0" yOffset="0.000" />
    <component base="cap" xOffset="0" yOffset="600.000" />
    <contour>
      <point x="0.000" y="200.000" type="line"/>
      <point x="0.000" y="800.000" type="line"/>
      <point x="400.000" y="800.000" type="line"/>
      <point x="400.000" y="200.000" type="line"/>
    </contour>
  </outline>
</glyph>
<glyph name="_104" format="2">
  <advance width="1000"/>
  <unicode hex="0168"/>
  
  <outline>
    <component base="cap" xOffset="0" yOffset="0.000" />
    <component base="cap" xOffset="0" yOffset="640.000" />
    <contour>
      <point x="0.000" y="200.000" type="line"/>
      <point x="0.000" y="840.000" type="line"/>
      <point x="400.000" y="840.000" type="line"/>
      <point x="400.000" y="200.000" type="line"/>
    </contour>
  </outline>
</glyph>
<glyph name="_2.center" format="2">
  <advance width="1000"/>
  <unicode hex="0402"/>
  
  <outline>
    <component base="cap" xOffset="0" yOffset="490.000" />
    <component base="cap" xOffset="0" yOffset="110.000" />
    <contour>
      <point x="0.000" y="690.000" type="line"/>
      <point x="0.000" y="310.000" type="line"/>
      <point x="400.000" y="310.000" type="line"/>
      <point x="400.000" y="690.000" type="line"/>
    </contour>
  </outline>
</glyph>
<glyph name="_9.center" format="2">
  <advance width="1000"/>
  <unicode hex="0409"/>
  
  <outline>
    <component base="cap" xOffset="0" yOffset="455.000" />
    <component base="cap" xOffset="0" yOffset="145.000" />
    <contour>
      <point x="0.000" y="655.000" type="line"/>
      <point x="0.000" y="345.000" type="line"/>
      <point x="400.000" y="345.000" type="line"/>
      <point x="400.000" y="655.000" type="line"/>
    </contour>
  </outline>
</glyph>
<glyph name="_11.center" format="2">
  <advance width="1000"/>
  <unicode hex="040B"/>
  
  <outline>
    <component base="cap" xOffset="0" yOffset="445.000" />
    <component base="cap" xOffset="0" yOffset="155.000" />
    <contour>
      <point x="0.000" y="645.000" type="line"/>
      <point x="0.000" y="355.000" type="line"/>
      <point x="400.000" y="355.000" type="line"/>
      <point x="400.000" y="645.000" type="line"/>
    </contour>
  </outline>
</glyph>
<glyph name="_18.center" format="2">
  <advance width="1000"/>
  <unicode hex="0412"/>
  
  <outline>
    <component base="cap" xOffset="0" yOffset="410.000" />
    <component base="cap" xOffset="0" yOffset="190.000" />
    <contour>
      <point x="0.000" y="610.000" type="line"/>
      <point x="0.000" y="390.000" type="line"/>
      <point x="400.000" y="390.000" type="line"/>
      <point x="400.000" y="610.000" type="line"/>
    </contour>
  </outline>
</glyph>
<glyph name="_22.center" format="2">
  <advance width="1000"/>
  <unicode hex="0416"/>
  
  <outline>
    <component base="cap" xOffset="0" yOffset="390.000" />
    <component base="cap" xOffset="0" yOffset="210.000" />
    <contour>
      <point x="0.000" y="590.000" type="line"/>
      <point x="0.000" y="410.000" type="line"/>
      <point x="400.000" y="410.000" type="line"/>
      <point x="400.000" y="590.000" type="line"/>
    </contour>
  </outline>
</glyph>
<glyph name="_35.center" format="2">
  <advance width="1000"/>
  <unicode hex="0423"/>
  
  <outline>
    <component base="cap" xOffset="0" yOffset="325" />
    <component base="cap" xOffset="0" yOffset="275" />
    <contour>
      <point x="0" y="525" type="line"/>
      <point x="0" y="475" type="line"/>
      <point x="400" y="475" type="line"/>
      <point x="400" y="525" type="line"/>
    </contour>
  </outline>
</glyph>
<glyph name="_39.center" format="2">
  <advance width="1000"/>
  <unicode hex="0427"/>
  
  <outline>
    <component base="cap" xOffset="0" yOffset="305.000" />
    <component base="cap" xOffset="0" yOffset="295.000" />
    <contour>
      <point x="0.000" y="505.000" type="line"/>
      <point x="0.000" y="495.000" type="line"/>
      <point x="400.000" y="495.000" type="line"/>
      <point x="400.000" y="505.000" type="line"/>
    </contour>
  </outline>
</glyph>
<glyph name="_40.center" format="2">
  <advance width="1000"/>
  <unicode hex="0428"/>
  
  <outline>
    <component base="cap" xOffset="0" yOffset="300.000" />
    <component base="cap" xOffset="0" yOffset="300.000" />
    <contour>
      <point x="0.000" y="500.000" type="line"/>
      <point x="0.000" y="500.000" type="line"/>
      <point x="400.000" y="500.000" type="line"/>
      <point x="400.000" y="500.000" type="line"/>
    </contour>
  </outline>
</glyph>
<glyph name="_41.center" format="2">
  <advance width="1000"/>
  <unicode hex="0429"/>
  
  <outline>
    <component base="cap" xOffset="0" yOffset="295.000" />
    <component base="cap" xOffset="0" yOffset="305.000" />
    <contour>
      <point x="0.000" y="495.000" type="line"/>
      <point x="0.000" y="505.000" type="line"/>
      <point x="400.000" y="505.000" type="line"/>
      <point x="400.000" y="495.000" type="line"/>
    </contour>
  </outline>
</glyph>
<glyph name="_43.center" format="2">
  <advance width="1000"/>
  <unicode hex="042B"/>
  
  <outline>
    <component base="cap" xOffset="0" yOffset="285.000" />
    <component base="cap" xOffset="0" yOffset="315.000" />
    <contour>
      <point x="0.000" y="485.000" type="line"/>
      <point x="0.000" y="515.000" type="line"/>
      <point x="400.000" y="515.000" type="line"/>
      <point x="400.000" y="485.000" type="line"/>
    </contour>
  </outline>
</glyph>
<glyph name="_44.center" format="2">
  <advance width="1000"/>
  <unicode hex="042C"/>
  
  <outline>
    <component base="cap" xOffset="0" yOffset="280.000" />
    <component base="cap" xOffset="0" yOffset="320.000" />
    <contour>
      <point x="0.000" y="480.000" type="line"/>
      <point x="0.000" y="520.000" type="line"/>
      <point x="400.000" y="520.000" type="line"/>
      <point x="400.000" y="480.000" type="line"/>
    </contour>
  </outline>
</glyph>
<glyph name="_51.center" format="2">
  <advance width="1000"/>
  <unicode hex="0433"/>
  
  <outline>
    <component base="cap" xOffset="0" yOffset="245.000" />
    <component base="cap" xOffset="0" yOffset="355.000" />
    <contour>
      <point x="0.000" y="445.000" type="line"/>
      <point x="0.000" y="555.000" type="line"/>
      <point x="400.000" y="555.000" type="line"/>
      <point x="400.000" y="445.000" type="line"/>
    </contour>
  </outline>
</glyph>
<glyph name="_52.center" format="2">
  <advance width="1000"/>
  <unicode hex="0434"/>
  
  <outline>
    <component base="cap" xOffset="0" yOffset="240.000" />
    <component base="cap" xOffset="0" yOffset="360.000" />
    <contour>
      <point x="0.000" y="440.000" type="line"/>
      <point x="0.000" y="560.000" type="line"/>
      <point x="400.000" y="560.000" type="line"/>
      <point x="400.000" y="440.000" type="line"/>
    </contour>
  </outline>
</glyph>
<glyph name="_54.center" format="2">
  <advance width="1000"/>
  <unicode hex="0436"/>
  
  <outline>
    <component base="cap" xOffset="0" yOffset="230.000" />
    <component base="cap" xOffset="0" yOffset="370.000" />
    <contour>
      <point x="0.000" y="430.000" type="line"/>
      <point x="0.000" y="570.000" type="line"/>
      <point x="400.000" y="570.000" type="line"/>
      <point x="400.000" y="430.000" type="line"/>
    </contour>
  </outline>
</glyph>
<glyph name="_60.center" format="2">
  <advance width="1000"/>
  <unicode hex="043C"/>
  
  <outline>
    <component base="cap" xOffset="0" yOffset="200.000" />
    <component base="cap" xOffset="0" yOffset="400.000" />
    <contour>
      <point x="0.000" y="400.000" type="line"/>
      <point x="0.000" y="600.000" type="line"/>
      <point x="400.000" y="600.000" type="line"/>
      <point x="400.000" y="400.000" type="line"/>
    </contour>
  </outline>
</glyph>
<glyph name="_62.center" format="2">
  <advance width="1000"/>
  <unicode hex="043E"/>
  
  <outline>
    <component base="cap" xOffset="0" yOffset="190" />
    <component base="cap" xOffset="0" yOffset="410" />
    <contour>
      <point x="0" y="390" type="line"/>
      <point x="0" y="610" type="line"/>
      <point x="400" y="610" type="line"/>
      <point x="400" y="390" type="line"/>
    </contour>
  </outline>
</glyph>
<glyph name="_70.center" format="2">
  <advance width="1000"/>
  <unicode hex="0446"/>
  
  <outline>
    <component base="cap" xOffset="0" yOffset="150" />
    <component base="cap" xOffset="0" yOffset="450" />
    <contour>
      <point x="0" y="350" type="line"/>
      <point x="0" y="650" type="line"/>
      <point x="400" y="650" type="line"/>
      <point x="400" y="350" type="line"/>
    </contour>
  </outline>
</glyph>
<glyph name="_73.center" format="2">
  <advance width="1000"/>
  <unicode hex="0449"/>
  
  <outline>
    <component base="cap" xOffset="0" yOffset="135" />
    <component base="cap" xOffset="0" yOffset="465" />
    <contour>
      <point x="0" y="335" type="line"/>
      <point x="0" y="665" type="line"/>
      <point x="400" y="665" type="line"/>
      <point x="400" y="335" type="line"/>
    </contour>
  </outline>
</glyph>
<glyph name="_76.center" format="2">
  <advance width="1000"/>
  <unicode hex="044C"/>
  
  <outline>
    <component base="cap" xOffset="0" yOffset="120" />
    <component base="cap" xOffset="0" yOffset="480" />
    <contour>
      <point x="0" y="320" type="line"/>
      <point x="0" y="680" type="line"/>
      <point x="400" y="680" type="line"/>
      <point x="400" y="320" type="line"/>
    </contour>
  </outline>
</glyph>
<glyph name="_79.center" format="2">
  <advance width="1000"/>
  <unicode hex="044F"/>
  
  <outline>
    <component base="cap" xOffset="0" yOffset="105.000" />
    <component base="cap" xOffset="0" yOffset="495.000" />
    <contour>
      <point x="0.000" y="305.000" type="line"/>
      <point x="0.000" y="695.000" type="line"/>
      <point x="400.000" y="695.000" type="line"/>
      <point x="400.000" y="305.000" type="line"/>
    </contour>
  </outline>
</glyph>
<glyph name="_81.center" format="2">
  <advance width="1000"/>
  <unicode hex="0451"/>
  
  <outline>
    <component base="cap" xOffset="0" yOffset="95.000" />
    <component base="cap" xOffset="0" yOffset="505.000" />
    <contour>
      <point x="0.000" y="295.000" type="line"/>
      <point x="0.000" y="705.000" type="line"/>
      <point x="400.000" y="705.000" type="line"/>
      <point x="400.000" y="295.000" type="line"/>
    </contour>
  </outline>
</glyph>
<glyph name="_82.center" format="2">
  <advance width="1000"/>
  <unicode hex="0452"/>
  
  <outline>
    <component base="cap" xOffset="0" yOffset="90" />
    <component base="cap" xOffset="0" yOffset="510" />
    <contour>
      <point x="0" y="290" type="line"/>
      <point x="0" y="710" type="line"/>
      <point x="400" y="710" type="line"/>
      <point x="400" y="290" type="line"/>
    </contour>
  </outline>
</glyph>
<glyph name="_86.center" format="2">
  <advance width="1000"/>
  <unicode hex="0456"/>
  
  <outline>
    <component base="cap" xOffset="0" yOffset="70.000" />
    <component base="cap" xOffset="0" yOffset="530.000" />
    <contour>
      <point x="0.000" y="270.000" type="line"/>
      <point x="0.000" y="730.000" type="line"/>
      <point x="400.000" y="730.000" type="line"/>
      <point x="400.000" y="270.000" type="line"/>
    </contour>
  </outline>
</glyph>
<glyph name="_90.center" format="2">
  <advance width="1000"/>
  <unicode hex="045A"/>
  
  <outline>
    <component base="cap" xOffset="0" yOffset="50.000" />
    <component base="cap" xOffset="0" yOffset="550.000" />
    <contour>
      <point x="0.000" y="250.000" type="line"/>
      <point x="0.000" y="750.000" type="line"/>
      <point x="400.000" y="750.000" type="line"/>
      <point x="400.000" y="250.000" type="line"/>
    </contour>
  </outline>
</glyph>
<glyph name="_94.center" format="2">
  <advance width="1000"/>
  <unicode hex="045E"/>
  
  <outline>
    <component base="cap" xOffset="0" yOffset="30.000" />
    <component base="cap" xOffset="0" yOffset="570.000" />
    <contour>
      <point x="0.000" y="230.000" type="line"/>
      <point x="0.000" y="770.000" type="line"/>
      <point x="400.000" y="770.000" type="line"/>
      <point x="400.000" y="230.000" type="line"/>
    </contour>
  </outline>
</glyph>
<glyph name="_96.center" format="2">
  <advance width="1000"/>
  <unicode hex="0460"/>
  
  <outline>
    <component base="cap" xOffset="0" yOffset="20.000" />
    <component base="cap" xOffset="0" yOffset="580.000" />
    <contour>
      <point x="0.000" y="220.000" type="line"/>
      <point x="0.000" y="780.000" type="line"/>
      <point x="400.000" y="780.000" type="line"/>
      <point x="400.000" y="220.000" type="line"/>
    </contour>
  </outline>
</glyph>
<glyph name="_98.center" format="2">
  <advance width="1000"/>
  <unicode hex="0462"/>
  
  <outline>
    <component base="cap" xOffset="0" yOffset="10.000" />
    <component base="cap" xOffset="0" yOffset="590.000" />
    <contour>
      <point x="0.000" y="210.000" type="line"/>
      <point x="0.000" y="790.000" type="line"/>
      <point x="400.000" y="790.000" type="line"/>
      <point x="400.000" y="210.000" type="line"/>
    </contour>
  </outline>
</glyph>
<glyph name="_99.center" format="2">
  <advance width="1000"/>
  <unicode hex="0463"/>
  
  <outline>
    <component base="cap" xOffset="0" yOffset="5.000" />
    <component base="cap" xOffset="0" yOffset="595.000" />
    <contour>
      <point x="0.000" y="205.000" type="line"/>
      <point x="0.000" y="795.000" type="line"/>
      <point x="400.000" y="795.000" type="line"/>
      <point x="400.000" y="205.000" type="line"/>
    </contour>
  </outline>
</glyph>
<glyph name="_101.center" format="2">
  <advance width="1000"/>
  <unicode hex="0465"/>
  
  <outline>
    <component base="cap" xOffset="0" yOffset="-5.000" />
    <component base="cap" xOffset="0" yOffset="605.000" />
    <contour>
      <point x="0.000" y="195.000" type="line"/>
      <point x="0.000" y="805.000" type="line"/>
      <point x="400.000" y="805.000" type="line"/>
      <point x="400.000" y="195.000" type="line"/>
    </contour>
  </outline>
</glyph>
<glyph name="_103.center" format="2">
  <advance width="1000"/>
  <unicode hex="0467"/>
  
  <outline>
    <component base="cap" xOffset="0" yOffset="-15.000" />
    <component base="cap" xOffset="0" yOffset="615.000" />
    <contour>
      <point x="0.000" y="185.000" type="line"/>
      <point x="0.000" y="815.000" type="line"/>
      <point x="400.000" y="815.000" type="line"/>
      <point x="400.000" y="185.000" type="line"/>
    </contour>
  </outline>
</glyph>
<glyph name="_20.clip" format="2">
  <advance width="1000"/>
  
  <outline>
    <contour>
        <point x="0.000" y="155.000"/>

        <point x="45.000" y="200.000"/>
        <point x="100.000" y="200.000" type="curve" smooth="yes"/>
        <point x="300.000" y="200.000" type="line"/>
        <point x="355.000" y="200.000"/>

        <point x="400.000" y="155.000"/>
        <point x="400.000" y="100.000" type="curve" smooth="yes"/>
        <point x="400.000" y="100.000" type="line"/>
        <point x="400.000" y="45.000"/>

        <point x="355.000" y="0.000"/>
        <point x="300.000" y="0.000" type="curve" smooth="yes"/>
        <point x="100.000" y="0.000" type="line"/>
        <point x="45.000" y="0.000"/>

        <point x="0.000" y="45.000"/>
        <point x="0.000" y="100.000" type="curve" smooth="yes"/>
        <point x="0.000" y="100.000" type="line"/>
    </contour>
  </outline>
</glyph>
<glyph name="_37.clip.center" format="2">
  <advance width="1000"/>
  
  <outline>
    <contour>
        <point x="0.000" y="601.750"/>

        <point x="83.250" y="685.000"/>
        <point x="185.000" y="685.000" type="curve" smooth="yes"/>
        <point x="215.000" y="685.000" type="line"/>
        <point x="316.750" y="685.000"/>

        <point x="400.000" y="601.750"/>
        <point x="400.000" y="500.000" type="curve" smooth="yes"/>
        <point x="400.000" y="500.000" type="line"/>
        <point x="400.000" y="398.250"/>

        <point x="316.750" y="315.000"/>
        <point x="215.000" y="315.000" type="curve" smooth="yes"/>
        <point x="185.000" y="315.000" type="line"/>
        <point x="83.250" y="315.000"/>

        <point x="0.000" y="398.250"/>
        <point x="0.000" y="500.000" type="curve" smooth="yes"/>
        <point x="0.000" y="500.000" type="line"/>
    </contour>
  </outline>
</glyph>
<glyph name="_41.clip" format="2">
  <advance width="1000"/>
  
  <outline>
    <contour>
        <point x="0.000" y="317.750"/>

        <point x="92.250" y="410.000"/>
        <point x="205.000" y="410.000" type="curve" smooth="yes"/>
        <point x="195.000" y="410.000" type="line"/>
        <point x="307.750" y="410.000"/>

        <point x="400.000" y="317.750"/>
        <point x="400.000" y="205.000" type="curve" smooth="yes"/>
        <point x="400.000" y="205.000" type="line"/>
        <point x="400.000" y="92.250"/>

        <point x="307.750" y="0.000"/>
        <point x="195.000" y="0.000" type="curve" smooth="yes"/>
        <point x="205.000" y="0.000" type="line"/>
        <point x="92.250" y="0.000"/>

        <point x="0.000" y="92.250"/>
        <point x="0.000" y="205.000" type="curve" smooth="yes"/>
        <point x="0.000" y="205.000" type="line"/>
    </contour>
  </outline>
</glyph>
<glyph name="_45.clip" format="2">
  <advance width="1000"/>
  
  <outline>
    <contour>
        <point x="0.000" y="348.750"/>

        <point x="101.250" y="450.000"/>
        <point x="225.000" y="450.000" type="curve" smooth="yes"/>
        <point x="175.000" y="450.000" type="line"/>
        <point x="298.750" y="450.000"/>

        <point x="400.000" y="348.750"/>
        <point x="400.000" y="225.000" type="curve" smooth="yes"/>
        <point x="400.000" y="225.000" type="line"/>
        <point x="400.000" y="101.250"/>

        <point x="298.750" y="0.000"/>
        <point x="175.000" y="0.000" type="curve" smooth="yes"/>
        <point x="225.000" y="0.000" type="line"/>
        <point x="101.250" y="0.000"/>

        <point x="0.000" y="101.250"/>
        <point x="0.000" y="225.000" type="curve" smooth="yes"/>
        <point x="0.000" y="225.000" type="line"/>
    </contour>
  </outline>
</glyph>
<glyph name="_57.clip.center" format="2">
  <advance width="1000"/>
  
  <outline>
    <contour>
        <point x="0.000" y="656.750"/>

        <point x="128.250" y="785.000"/>
        <point x="285.000" y="785.000" type="curve" smooth="yes"/>
        <point x="115.000" y="785.000" type="line"/>
        <point x="271.750" y="785.000"/>

        <point x="400.000" y="656.750"/>
        <point x="400.000" y="500.000" type="curve" smooth="yes"/>
        <point x="400.000" y="500.000" type="line"/>
        <point x="400.000" y="343.250"/>

        <point x="271.750" y="215.000"/>
        <point x="115.000" y="215.000" type="curve" smooth="yes"/>
        <point x="285.000" y="215.000" type="line"/>
        <point x="128.250" y="215.000"/>

        <point x="0.000" y="343.250"/>
        <point x="0.000" y="500.000" type="curve" smooth="yes"/>
        <point x="0.000" y="500.000" type="line"/>
    </contour>
  </outline>
</glyph>
<glyph name="_60.clip" format="2">
  <advance width="1000"/>
  
  <outline>
    <contour>
        <point x="0.000" y="465.000"/>

        <point x="135.000" y="600.000"/>
        <point x="300.000" y="600.000" type="curve" smooth="yes"/>
        <point x="100.000" y="600.000" type="line"/>
        <point x="265.000" y="600.000"/>

        <point x="400.000" y="465.000"/>
        <point x="400.000" y="300.000" type="curve" smooth="yes"/>
        <point x="400.000" y="300.000" type="line"/>
        <point x="400.000" y="135.000"/>

        <point x="265.000" y="0.000"/>
        <point x="100.000" y="0.000" type="curve" smooth="yes"/>
        <point x="300.000" y="0.000" type="line"/>
        <point x="135.000" y="0.000"/>

        <point x="0.000" y="135.000"/>
        <point x="0.000" y="300.000" type="curve" smooth="yes"/>
        <point x="0.000" y="300.000" type="line"/>
    </contour>
  </outline>
</glyph>
